<svg width="21" height="21" viewBox="0 0 21 21" fill="none" xmlns="http://www.w3.org/2000/svg">
<path d="M3.76671 8.36583L5.80701 9.22903C6.05115 8.74076 6.30401 8.26992 6.56559 7.81652C6.82717 7.36312 7.1149 6.90972 7.42879 6.45632L5.96396 6.16858L3.76671 8.36583ZM7.48111 10.5369L10.4631 13.4927C11.1955 13.2137 11.9802 12.7865 12.8173 12.211C13.6543 11.6355 14.4391 10.9816 15.1715 10.2492C16.3922 9.02849 17.3469 7.67265 18.0357 6.18166C18.7246 4.69067 19.0254 3.31739 18.9382 2.06182C17.6826 1.97463 16.305 2.27544 14.8053 2.96426C13.3056 3.65308 11.9454 4.60784 10.7247 5.82853C9.99225 6.56095 9.33831 7.34568 8.76284 8.18273C8.18737 9.01977 7.76012 9.8045 7.48111 10.5369ZM12.1372 8.83667C11.7361 8.43558 11.5356 7.94295 11.5356 7.35876C11.5356 6.77457 11.7361 6.28193 12.1372 5.88085C12.5383 5.47976 13.0353 5.27922 13.6282 5.27922C14.2211 5.27922 14.7181 5.47976 15.1192 5.88085C15.5202 6.28193 15.7208 6.77457 15.7208 7.35876C15.7208 7.94295 15.5202 8.43558 15.1192 8.83667C14.7181 9.23775 14.2211 9.4383 13.6282 9.4383C13.0353 9.4383 12.5383 9.23775 12.1372 8.83667ZM12.6342 17.2333L14.8314 15.036L14.5437 13.5712C14.0903 13.8851 13.6369 14.1685 13.1835 14.4213C12.7301 14.6742 12.2593 14.9227 11.771 15.1668L12.6342 17.2333ZM20.8215 0.152305C21.1529 2.26236 20.948 4.31574 20.2068 6.31245C19.4657 8.30915 18.1883 10.2143 16.3747 12.0279L16.8979 14.6175C16.9676 14.9663 16.9502 15.3063 16.8456 15.6377C16.7409 15.969 16.5666 16.2567 16.3224 16.5009L11.9279 20.8954L9.73067 15.7423L5.2577 11.2693L0.104631 9.07209L4.47297 4.67759C4.71711 4.43345 5.0092 4.25907 5.34925 4.15444C5.6893 4.04981 6.03371 4.03237 6.38248 4.10212L8.9721 4.62528C10.7857 2.81167 12.6865 1.52995 14.6745 0.780091C16.6625 0.0302361 18.7115 -0.179026 20.8215 0.152305ZM1.96183 14.5914C2.57218 13.981 3.31767 13.6715 4.19831 13.6628C5.07896 13.654 5.82445 13.9549 6.4348 14.5652C7.04515 15.1756 7.34596 15.9211 7.33724 16.8017C7.32852 17.6823 7.01899 18.4278 6.40864 19.0382C5.97268 19.4741 5.24462 19.8491 4.22447 20.163C3.20432 20.4769 1.79616 20.7559 0 21C0.244139 19.2038 0.523154 17.7957 0.837047 16.7755C1.15094 15.7554 1.52587 15.0273 1.96183 14.5914ZM3.45282 16.0562C3.27843 16.2306 3.10405 16.5488 2.92966 17.011C2.75528 17.4731 2.63321 17.9396 2.56346 18.4104C3.0343 18.3406 3.50077 18.2229 3.96289 18.0573C4.42501 17.8916 4.74327 17.7216 4.91765 17.5472C5.12691 17.3379 5.24026 17.0851 5.2577 16.7886C5.27514 16.4922 5.17923 16.2393 4.96997 16.03C4.76071 15.8208 4.50785 15.7205 4.21139 15.7292C3.91494 15.7379 3.66208 15.8469 3.45282 16.0562Z" fill="#141C24"/>
</svg>
