<svg width="48" height="72" viewBox="0 0 48 72" fill="none" xmlns="http://www.w3.org/2000/svg">
<rect width="48" height="48" rx="4" fill="#E0E9F4"/>
<path d="M14 31.8V29C14 28.45 14.1417 27.9334 14.425 27.45C14.7083 26.9667 15.1 26.6 15.6 26.35C16.45 25.9167 17.4083 25.55 18.475 25.25C19.5417 24.95 20.7167 24.8 22 24.8C22.5 24.8 22.9875 24.825 23.4625 24.875C23.9375 24.925 24.4 25 24.85 25.1L23.1 26.85C22.9167 26.8167 22.7375 26.8 22.5625 26.8C22.3875 26.8 22.2 26.8 22 26.8C20.8167 26.8 19.7542 26.9417 18.8125 27.225C17.8708 27.5084 17.1 27.8167 16.5 28.15C16.35 28.2334 16.2292 28.35 16.1375 28.5C16.0458 28.65 16 28.8167 16 29V29.8H22.25L24.25 31.8H14ZM27.55 32.2L24.1 28.75L25.5 27.35L27.55 29.4L32.6 24.35L34 25.75L27.55 32.2ZM22 23.8C20.9 23.8 19.9583 23.4084 19.175 22.625C18.3917 21.8417 18 20.9 18 19.8C18 18.7 18.3917 17.7584 19.175 16.975C19.9583 16.1917 20.9 15.8 22 15.8C23.1 15.8 24.0417 16.1917 24.825 16.975C25.6083 17.7584 26 18.7 26 19.8C26 20.9 25.6083 21.8417 24.825 22.625C24.0417 23.4084 23.1 23.8 22 23.8ZM22 21.8C22.55 21.8 23.0208 21.6042 23.4125 21.2125C23.8042 20.8209 24 20.35 24 19.8C24 19.25 23.8042 18.7792 23.4125 18.3875C23.0208 17.9959 22.55 17.8 22 17.8C21.45 17.8 20.9792 17.9959 20.5875 18.3875C20.1958 18.7792 20 19.25 20 19.8C20 20.35 20.1958 20.8209 20.5875 21.2125C20.9792 21.6042 21.45 21.8 22 21.8Z" fill="#0051AE"/>
</svg>
