<svg width="11" height="11" viewBox="0 0 11 11" fill="none" xmlns="http://www.w3.org/2000/svg">
<path d="M10.1444 11L6.29444 7.15C5.98889 7.39444 5.6375 7.58796 5.24028 7.73056C4.84306 7.87315 4.42037 7.94444 3.97222 7.94444C2.86204 7.94444 1.92245 7.55995 1.15347 6.79097C0.384491 6.02199 0 5.08241 0 3.97222C0 2.86204 0.384491 1.92245 1.15347 1.15347C1.92245 0.384491 2.86204 0 3.97222 0C5.08241 0 6.02199 0.384491 6.79097 1.15347C7.55995 1.92245 7.94444 2.86204 7.94444 3.97222C7.94444 4.42037 7.87315 4.84306 7.73056 5.24028C7.58796 5.6375 7.39444 5.98889 7.15 6.29444L11 10.1444L10.1444 11ZM3.97222 6.72222C4.73611 6.72222 5.38542 6.45486 5.92014 5.92014C6.45486 5.38542 6.72222 4.73611 6.72222 3.97222C6.72222 3.20833 6.45486 2.55903 5.92014 2.02431C5.38542 1.48958 4.73611 1.22222 3.97222 1.22222C3.20833 1.22222 2.55903 1.48958 2.02431 2.02431C1.48958 2.55903 1.22222 3.20833 1.22222 3.97222C1.22222 4.73611 1.48958 5.38542 2.02431 5.92014C2.55903 6.45486 3.20833 6.72222 3.97222 6.72222Z" fill="#727785"/>
</svg>
