<svg width="11" height="11" viewBox="0 0 11 11" fill="none" xmlns="http://www.w3.org/2000/svg">
<path d="M1.22222 11C0.886111 11 0.59838 10.8803 0.359028 10.641C0.119676 10.4016 0 10.1139 0 9.77778V1.22222C0 0.886111 0.119676 0.59838 0.359028 0.359028C0.59838 0.119676 0.886111 0 1.22222 0H5.5V1.22222H1.22222V9.77778H9.77778V5.5H11V9.77778C11 10.1139 10.8803 10.4016 10.641 10.641C10.4016 10.8803 10.1139 11 9.77778 11H1.22222ZM4.09444 7.76111L3.23889 6.90556L8.92222 1.22222H6.72222V0H11V4.27778H9.77778V2.07778L4.09444 7.76111Z" fill="#0051AE"/>
</svg>
