<svg width="48" height="48" viewBox="0 0 48 48" fill="none" xmlns="http://www.w3.org/2000/svg">
<rect width="48" height="48" rx="4" fill="#0051AE" fill-opacity="0.1"/>
<path d="M16 27.5C15.1667 27.5 14.4583 27.2083 13.875 26.625C13.2917 26.0417 13 25.3333 13 24.5C13 23.6667 13.2917 22.9583 13.875 22.375C14.4583 21.7917 15.1667 21.5 16 21.5V19.5C16 18.95 16.1958 18.4792 16.5875 18.0875C16.9792 17.6958 17.45 17.5 18 17.5H21C21 16.6667 21.2917 15.9583 21.875 15.375C22.4583 14.7917 23.1667 14.5 24 14.5C24.8333 14.5 25.5417 14.7917 26.125 15.375C26.7083 15.9583 27 16.6667 27 17.5H30C30.55 17.5 31.0208 17.6958 31.4125 18.0875C31.8042 18.4792 32 18.95 32 19.5V21.5C32.8333 21.5 33.5417 21.7917 34.125 22.375C34.7083 22.9583 35 23.6667 35 24.5C35 25.3333 34.7083 26.0417 34.125 26.625C33.5417 27.2083 32.8333 27.5 32 27.5V31.5C32 32.05 31.8042 32.5208 31.4125 32.9125C31.0208 33.3042 30.55 33.5 30 33.5H18C17.45 33.5 16.9792 33.3042 16.5875 32.9125C16.1958 32.5208 16 32.05 16 31.5V27.5ZM21 25.5C21.4167 25.5 21.7708 25.3542 22.0625 25.0625C22.3542 24.7708 22.5 24.4167 22.5 24C22.5 23.5833 22.3542 23.2292 22.0625 22.9375C21.7708 22.6458 21.4167 22.5 21 22.5C20.5833 22.5 20.2292 22.6458 19.9375 22.9375C19.6458 23.2292 19.5 23.5833 19.5 24C19.5 24.4167 19.6458 24.7708 19.9375 25.0625C20.2292 25.3542 20.5833 25.5 21 25.5ZM27 25.5C27.4167 25.5 27.7708 25.3542 28.0625 25.0625C28.3542 24.7708 28.5 24.4167 28.5 24C28.5 23.5833 28.3542 23.2292 28.0625 22.9375C27.7708 22.6458 27.4167 22.5 27 22.5C26.5833 22.5 26.2292 22.6458 25.9375 22.9375C25.6458 23.2292 25.5 23.5833 25.5 24C25.5 24.4167 25.6458 24.7708 25.9375 25.0625C26.2292 25.3542 26.5833 25.5 27 25.5ZM20 29.5H28V27.5H20V29.5ZM18 31.5H30V19.5H18V31.5Z" fill="#141C24"/>
</svg>
